<svg width="24" height="24" viewBox="0 0 24 24" fill="none" xmlns="http://www.w3.org/2000/svg">
<g id="fi-br-notebook" clip-path="url(#clip0_13_362)">
<path id="Vector" d="M19 2.60699V1.49999C19 1.10217 18.842 0.720637 18.5607 0.439332C18.2794 0.158028 17.8978 -7.62939e-06 17.5 -7.62939e-06C17.1022 -7.62939e-06 16.7206 0.158028 16.4393 0.439332C16.158 0.720637 16 1.10217 16 1.49999V1.99999H13.5V1.49999C13.5 1.10217 13.342 0.720637 13.0607 0.439332C12.7794 0.158028 12.3978 -7.62939e-06 12 -7.62939e-06C11.6022 -7.62939e-06 11.2206 0.158028 10.9393 0.439332C10.658 0.720637 10.5 1.10217 10.5 1.49999V1.99999H8V1.49999C8 1.10217 7.84196 0.720637 7.56066 0.439332C7.27936 0.158028 6.89782 -7.62939e-06 6.5 -7.62939e-06C6.10218 -7.62939e-06 5.72064 0.158028 5.43934 0.439332C5.15804 0.720637 5 1.10217 5 1.49999V2.60699C4.09794 3.06732 3.34049 3.76777 2.81114 4.63114C2.2818 5.49451 2.0011 6.48727 2 7.49999V18.5C2.00159 19.9582 2.58156 21.3562 3.61267 22.3873C4.64377 23.4184 6.0418 23.9984 7.5 24H16.5C17.9581 23.9981 19.356 23.4181 20.387 22.387C21.4181 21.356 21.9981 19.9581 22 18.5V7.49999C21.9989 6.48727 21.7182 5.49451 21.1889 4.63114C20.6595 3.76777 19.9021 3.06732 19 2.60699ZM19 18.5C19 19.163 18.7366 19.7989 18.2678 20.2678C17.7989 20.7366 17.163 21 16.5 21H7.5C6.83696 21 6.20107 20.7366 5.73223 20.2678C5.26339 19.7989 5 19.163 5 18.5V7.49999C5 6.83695 5.26339 6.20107 5.73223 5.73223C6.20107 5.26338 6.83696 4.99999 7.5 4.99999H16.5C17.163 4.99999 17.7989 5.26338 18.2678 5.73223C18.7366 6.20107 19 6.83695 19 7.49999V18.5ZM17 8.49999C17 8.89782 16.842 9.27935 16.5607 9.56065C16.2794 9.84196 15.8978 9.99999 15.5 9.99999H8.5C8.10218 9.99999 7.72064 9.84196 7.43934 9.56065C7.15804 9.27935 7 8.89782 7 8.49999C7 8.10217 7.15804 7.72064 7.43934 7.43933C7.72064 7.15803 8.10218 6.99999 8.5 6.99999H15.5C15.8978 6.99999 16.2794 7.15803 16.5607 7.43933C16.842 7.72064 17 8.10217 17 8.49999ZM13.5 13.5C13.5 13.8978 13.342 14.2793 13.0607 14.5607C12.7794 14.842 12.3978 15 12 15H8.5C8.10218 15 7.72064 14.842 7.43934 14.5607C7.15804 14.2793 7 13.8978 7 13.5C7 13.1022 7.15804 12.7206 7.43934 12.4393C7.72064 12.158 8.10218 12 8.5 12H12C12.3978 12 12.7794 12.158 13.0607 12.4393C13.342 12.7206 13.5 13.1022 13.5 13.5Z" fill="white"/>
</g>
<defs>
<clipPath id="clip0_13_362">
<rect width="24" height="24" fill="white"/>
</clipPath>
</defs>
</svg>
