<svg width="18" height="19" viewBox="0 0 18 19" fill="none" xmlns="http://www.w3.org/2000/svg">
<g id="Group">
<path id="Vector" d="M17.25 3.875C17.25 3.25368 16.7463 2.75 16.125 2.75H13.293C12.8191 1.40552 11.5506 0.50457 10.125 0.5H7.87501C6.44946 0.50457 5.18092 1.40552 4.70701 2.75H1.875C1.25368 2.75 0.75 3.25368 0.75 3.875C0.75 4.49632 1.25368 5 1.875 5H2.25001V14.375C2.25001 16.6532 4.09684 18.5 6.375 18.5H11.625C13.9032 18.5 15.75 16.6532 15.75 14.375V5H16.125C16.7463 5 17.25 4.49632 17.25 3.875ZM13.5 14.375C13.5 15.4105 12.6606 16.25 11.625 16.25H6.375C5.33947 16.25 4.50001 15.4105 4.50001 14.375V5H13.5V14.375Z" fill="#BF1C29"/>
<path id="Vector_2" d="M7.125 14C7.74632 14 8.25 13.4963 8.25 12.875V8.375C8.25 7.75368 7.74632 7.25 7.125 7.25C6.50368 7.25 6 7.75368 6 8.375V12.875C6 13.4963 6.50368 14 7.125 14Z" fill="#BF1C29"/>
<path id="Vector_3" d="M10.875 14C11.4963 14 12 13.4963 12 12.875V8.375C12 7.75368 11.4963 7.25 10.875 7.25C10.2537 7.25 9.75 7.75368 9.75 8.375V12.875C9.75 13.4963 10.2537 14 10.875 14Z" fill="#BF1C29"/>
</g>
</svg>
