<svg width="22" height="25" viewBox="0 0 22 25" fill="none" xmlns="http://www.w3.org/2000/svg">
<g id="Group">
<path id="Vector" d="M18.0443 9.00955V7.54435C18.0443 3.65386 14.8904 0.5 10.9999 0.5C7.10945 0.5 3.95564 3.65386 3.95564 7.5443V9.0095C2.10481 9.95402 0.93891 11.8556 0.936646 13.9335V18.9652C0.939995 22.0206 3.41604 24.4967 6.47145 24.5H15.5284C18.5838 24.4966 21.0599 22.0206 21.0632 18.9652V13.9335C21.061 11.8556 19.8951 9.95402 18.0443 9.00955ZM10.9999 3.51899C13.2231 3.51899 15.0252 5.32119 15.0252 7.5443V8.39868H6.97463V7.5443C6.97463 5.32119 8.77683 3.51899 10.9999 3.51899ZM18.0443 18.9652C18.0443 20.3546 16.9179 21.481 15.5285 21.481H6.4715C5.08205 21.481 3.95569 20.3546 3.95569 18.9652V13.9335C3.95569 12.5441 5.08205 11.4177 6.4715 11.4177H15.5285C16.9179 11.4177 18.0443 12.5441 18.0443 13.9335V18.9652Z" fill="#111559"/>
<path id="Vector_2" d="M10.4968 14.4367H11.5031C12.3368 14.4367 13.0126 15.1125 13.0126 15.9462C13.0126 16.7798 12.3368 17.4556 11.5031 17.4556H10.4968C9.66313 17.4556 8.9873 16.7798 8.9873 15.9462C8.9873 15.1125 9.66313 14.4367 10.4968 14.4367Z" fill="#111559"/>
</g>
</svg>
